<?xml version="1.0" encoding="UTF-8"?>
<svg version="1.1" xmlns="http://www.w3.org/2000/svg" width="32" height="32">
<path d="M0 0 C4.9981495 2.67142473 8.27030829 5.90467487 10.0625 11.28125 C10.64723186 17.24551498 9.45358446 21.43684363 6.0625 26.28125 C1.80606385 30.05400023 -2.32163796 31.24958161 -7.9375 31.28125 C-9.31574157 31.14394398 -10.6914088 30.97749397 -12.0625 30.78125 C-15.71724403 30.30967013 -18.37170437 30.47894598 -21.9375 31.28125 C-21.85371094 30.66378906 -21.76992188 30.04632812 -21.68359375 29.41015625 C-21.15069762 24.97834921 -20.85492835 21.06876055 -21.625 16.65625 C-22.30304533 11.68098229 -20.83804614 8.30018854 -17.9375 4.28125 C-12.88494923 -0.52483488 -6.74833876 -2.50341599 0 0 Z " fill="#0481F2" transform="translate(21.9375,0.71875)"/>
<path d="M0 0 C4.62 0 9.24 0 14 0 C14.33 1.32 14.66 2.64 15 4 C13.35 4.33 11.7 4.66 10 5 C10 9.29 10 13.58 10 18 C8.35 18.33 6.7 18.66 5 19 C4 18 4 18 3.90234375 15.05859375 C3.91394531 13.86363281 3.92554688 12.66867188 3.9375 11.4375 C3.94652344 10.23996094 3.95554687 9.04242188 3.96484375 7.80859375 C3.97644531 6.88175781 3.98804688 5.95492188 4 5 C2.35 4.67 0.7 4.34 -1 4 C-0.67 2.68 -0.34 1.36 0 0 Z " fill="#F6F9FE" transform="translate(9,8)"/>
</svg>
